<?xml version="1.0" encoding="utf-8"?>
<!-- Generator: Adobe Illustrator 22.0.1, SVG Export Plug-In . SVG Version: 6.00 Build 0)  -->
<svg version="1.1" id="Layer_1" xmlns="http://www.w3.org/2000/svg" xmlns:xlink="http://www.w3.org/1999/xlink" x="0px" y="0px"
	 viewBox="0 0 200 100" style="enable-background:new 0 0 200 100;" xml:space="preserve">
<style type="text/css">
	.st0{fill:#5D65CE;}
</style>
<g>
	<path class="st0" d="M22.8,37.2h2.6l-4.9,18.2h8.7l-0.6,2.2H17.3L22.8,37.2z"/>
	<path class="st0" d="M46.3,50.2c-1.5,5.4-5.8,7.8-9.4,7.8c-4,0-6.2-2.9-5-7.5c1.3-4.9,5.3-7.8,9.4-7.8
		C45.5,42.6,47.5,45.7,46.3,50.2z M34.7,50.3c-0.9,3.2,0.3,5.6,2.9,5.6c2.5,0,5.1-2.4,6-5.7c0.7-2.5,0.3-5.6-2.9-5.6
		C37.6,44.6,35.4,47.5,34.7,50.3z"/>
	<path class="st0" d="M50.4,47.5c0.5-1.7,0.8-3.2,1.1-4.6h2.3l-0.7,2.9h0.1c1.2-2,3.1-3.2,4.9-3.2c0.3,0,0.5,0,0.7,0.1l-0.7,2.5
		c-0.3-0.1-0.5-0.1-0.9-0.1c-1.9,0-3.6,1.4-4.5,3.4c-0.2,0.4-0.3,0.8-0.5,1.2l-2.1,7.8h-2.6L50.4,47.5z"/>
	<path class="st0" d="M60.6,50.8c-0.9,3.6,1,5.1,3.6,5.1c1.9,0,3.1-0.3,4.3-0.8L68.4,57c-1.1,0.4-2.8,0.9-5.1,0.9
		c-4.5,0-6.4-3-5.2-7.4c1.2-4.4,4.7-7.9,9-7.9c4.8,0,4.9,4.2,4.2,6.9c-0.1,0.5-0.3,1-0.4,1.2H60.6z M68.9,48.9
		c0.5-1.7,0.5-4.3-2.5-4.3c-2.7,0-4.5,2.5-5.3,4.3H68.9z"/>
	<path class="st0" d="M75.3,46.9c0.4-1.5,0.7-2.8,0.9-4h2.3l-0.5,2.4h0.1c1.2-1.4,2.9-2.7,5.3-2.7c2,0,3.2,1.2,3.4,2.9h0.1
		c0.7-0.8,1.4-1.5,2.1-1.9c1.1-0.7,2.1-1,3.5-1c1.9,0,4.5,1.3,3.1,6.4l-2.3,8.6h-2.6l2.2-8.3c0.8-2.8,0.2-4.5-2-4.5
		c-1.5,0-3,1.1-3.8,2.4c-0.2,0.4-0.4,0.8-0.6,1.3l-2.4,9h-2.6l2.4-8.8c0.6-2.3,0.1-4-2-4c-1.7,0-3.2,1.3-4,2.7
		c-0.3,0.4-0.4,0.8-0.6,1.3L75,57.6h-2.6L75.3,46.9z"/>
	<path class="st0" d="M104,57.6l4-14.6h2.7l-4,14.6H104z M112.1,38.9c-0.2,0.9-1.1,1.6-2.1,1.6c-0.9,0-1.4-0.7-1.2-1.6
		c0.3-0.9,1.1-1.7,2.1-1.7C111.9,37.2,112.3,37.9,112.1,38.9z"/>
	<path class="st0" d="M113.8,47.7c0.5-1.9,0.9-3.4,1.2-4.8h2.4l-0.6,2.5h0.1c1.6-1.8,3.6-2.8,6-2.8c3.5,0,5.4,3,4.2,7.4
		c-1.4,5.3-5.3,7.9-8.8,7.9c-1.9,0-3.4-0.8-3.9-2.3h-0.1l-2.1,8h-2.6L113.8,47.7z M115.4,51.6c-0.1,0.4-0.1,0.8-0.2,1.1
		c0,1.8,1.2,3.1,3.2,3.1c2.8,0,5.1-2.3,6-5.7c0.8-2.9-0.1-5.4-2.9-5.4c-1.8,0-3.9,1.3-4.9,3.3c-0.2,0.3-0.4,0.7-0.5,1.1L115.4,51.6z
		"/>
	<path class="st0" d="M128.7,54.9c0.6,0.5,1.9,1.1,3.2,1.1c1.9,0,3.1-1,3.4-2.2c0.3-1.3-0.2-2-2-2.7c-2.4-0.9-3.2-2.4-2.8-4.1
		c0.6-2.4,3.1-4.3,6.2-4.3c1.5,0,2.7,0.4,3.4,0.9l-1.2,1.9c-0.5-0.4-1.4-0.8-2.8-0.8c-1.6,0-2.7,0.9-3,2c-0.3,1.2,0.4,1.8,2.1,2.5
		c2.3,1,3.2,2.2,2.6,4.4c-0.7,2.6-3.2,4.4-6.7,4.4c-1.6,0-3-0.4-3.8-1L128.7,54.9z"/>
	<path class="st0" d="M153.6,53.6c-0.4,1.5-0.7,2.8-1,4h-2.4l0.5-2.4h-0.1c-1,1.2-3,2.7-5.6,2.7c-2.3,0-4.7-1.3-3.3-6.4l2.3-8.6h2.7
		l-2.2,8.1c-0.8,2.8-0.4,4.7,2,4.7c1.8,0,3.4-1.2,4.2-2.4c0.3-0.4,0.5-0.9,0.6-1.4l2.4-9h2.7L153.6,53.6z"/>
	<path class="st0" d="M159.9,46.9c0.4-1.5,0.7-2.8,0.9-4h2.3l-0.5,2.4h0.1c1.2-1.4,2.9-2.7,5.3-2.7c2,0,3.2,1.2,3.4,2.9h0.1
		c0.7-0.8,1.4-1.5,2.1-1.9c1.1-0.7,2.1-1,3.5-1c1.9,0,4.5,1.3,3.1,6.4l-2.3,8.6h-2.6l2.2-8.3c0.8-2.8,0.2-4.5-2-4.5
		c-1.5,0-3,1.1-3.8,2.4c-0.2,0.4-0.4,0.8-0.6,1.3l-2.4,9h-2.6l2.4-8.8c0.6-2.3,0.1-4-2-4c-1.7,0-3.2,1.3-4,2.7
		c-0.3,0.4-0.4,0.8-0.6,1.3l-2.4,8.8H157L159.9,46.9z"/>
</g>
</svg>
